<svg width="55" height="40" viewBox="0 0 55 40" fill="none" xmlns="http://www.w3.org/2000/svg">
<path d="M4.47548 40H12.9582V19.3992L0.840027 10.3105V36.3646C0.840027 38.3762 2.46992 40 4.47548 40Z" fill="#4285F4"/>
<path d="M42.0418 40H50.5245C52.5361 40 54.16 38.3702 54.16 36.3646V10.3105L42.0418 19.3992" fill="#34A853"/>
<path d="M42.0418 3.64576V19.3994L54.16 10.3108V5.46349C54.16 0.967648 49.0279 -1.59534 45.4349 1.10095" fill="#FBBC04"/>
<path d="M12.9582 19.3991V3.64551L27.5 14.5519L42.0418 3.64551V19.3991L27.5 30.3055" fill="#EA4335"/>
<path d="M0.840027 5.46349V10.3108L12.9582 19.3994V3.64576L9.56511 1.10095C5.96601 -1.59534 0.840027 0.967648 0.840027 5.46349" fill="#C5221F"/>
</svg>
