<svg width="61" height="60" viewBox="0 0 61 60" fill="none" xmlns="http://www.w3.org/2000/svg">
<path d="M20.5024 30.0001C20.5024 24.4805 24.9783 20.0049 30.5012 20.0049C36.0241 20.0049 40.5024 24.4805 40.5024 30.0001C40.5024 35.5196 36.0241 39.9953 30.5012 39.9953C24.9783 39.9953 20.5024 35.5196 20.5024 30.0001ZM15.0959 30.0001C15.0959 38.5033 21.9929 45.3961 30.5012 45.3961C39.0095 45.3961 45.9065 38.5033 45.9065 30.0001C45.9065 21.4968 39.0095 14.604 30.5012 14.604C21.9929 14.604 15.0959 21.4968 15.0959 30.0001ZM42.9162 13.9936C42.9159 14.7052 43.1268 15.4009 43.5221 15.9928C43.9175 16.5846 44.4795 17.046 45.1373 17.3186C45.795 17.5912 46.5188 17.6627 47.2173 17.5241C47.9157 17.3856 48.5573 17.0432 49.061 16.5402C49.5647 16.0372 49.9078 15.3962 50.047 14.6984C50.1862 14.0005 50.1152 13.277 49.843 12.6195C49.5707 11.9619 49.1095 11.3998 48.5177 11.0042C47.9258 10.6086 47.2298 10.3973 46.5178 10.397H46.5163C45.5619 10.3975 44.6467 10.7765 43.9716 11.4508C43.2966 12.1252 42.917 13.0397 42.9162 13.9936ZM18.3807 54.4057C15.4557 54.2725 13.8659 53.7856 12.8094 53.3742C11.4087 52.8293 10.4093 52.1802 9.35851 51.1315C8.30775 50.0828 7.65733 49.085 7.11442 47.6851C6.70257 46.6297 6.21535 45.0404 6.08238 42.1171C5.93694 38.9566 5.9079 38.0073 5.9079 30.0003C5.9079 21.9933 5.93934 21.0466 6.08238 17.8835C6.21559 14.9602 6.70641 13.374 7.11442 12.3155C7.65973 10.9156 8.30919 9.91682 9.35851 8.86669C10.4078 7.81656 11.4063 7.16652 12.8094 6.62395C13.8654 6.21234 15.4557 5.72541 18.3807 5.59252C21.5431 5.44716 22.493 5.41814 30.5012 5.41814C38.5094 5.41814 39.4603 5.44956 42.6253 5.59252C45.5503 5.72565 47.1375 6.21617 48.1966 6.62395C49.5973 7.16652 50.5967 7.818 51.6475 8.86669C52.6983 9.91538 53.3463 10.9156 53.8916 12.3155C54.3034 13.3709 54.7907 14.9602 54.9236 17.8835C55.0691 21.0466 55.0981 21.9933 55.0981 30.0003C55.0981 38.0073 55.0691 38.954 54.9236 42.1171C54.7904 45.0404 54.3008 46.6292 53.8916 47.6851C53.3463 49.085 52.6968 50.0838 51.6475 51.1315C50.5982 52.1792 49.5973 52.8293 48.1966 53.3742C47.1406 53.7859 45.5503 54.2728 42.6253 54.4057C39.4629 54.551 38.513 54.58 30.5012 54.58C22.4894 54.58 21.5421 54.551 18.3807 54.4057ZM18.1323 0.198424C14.9385 0.343783 12.7561 0.849899 10.8502 1.59108C8.87634 2.3565 7.20539 3.38336 5.53564 5.04947C3.86589 6.71557 2.84105 8.38816 2.07518 10.3608C1.33355 12.2668 0.827133 14.4467 0.681687 17.6386C0.533841 20.8355 0.5 21.8576 0.5 30.0001C0.5 38.1425 0.533841 39.1646 0.681687 42.3615C0.827133 45.5537 1.33355 47.7333 2.07518 49.6393C2.84105 51.6108 3.86613 53.2853 5.53564 54.9506C7.20515 56.616 8.87634 57.6415 10.8502 58.409C12.7597 59.1502 14.9385 59.6563 18.1323 59.8017C21.3328 59.947 22.3538 59.9833 30.5012 59.9833C38.6486 59.9833 39.6712 59.9494 42.8701 59.8017C46.0641 59.6563 48.2451 59.1502 50.1522 58.409C52.1249 57.6415 53.797 56.6167 55.4668 54.9506C57.1365 53.2845 58.1592 51.6108 58.9272 49.6393C59.6689 47.7333 60.1777 45.5534 60.3207 42.3615C60.4662 39.1622 60.5 38.1425 60.5 30.0001C60.5 21.8576 60.4662 20.8355 60.3207 17.6386C60.1753 14.4464 59.6689 12.2656 58.9272 10.3608C58.1592 8.38936 57.1339 6.71821 55.4668 5.04947C53.7997 3.38072 52.1249 2.3565 50.1546 1.59108C48.2451 0.849899 46.0639 0.341384 42.8725 0.198424C39.6736 0.0530654 38.651 0.0168457 30.5036 0.0168457C22.3562 0.0168457 21.3328 0.0506668 18.1323 0.198424Z" fill="url(#paint0_radial_722_180)"/>
<path d="M20.5024 30.0001C20.5024 24.4805 24.9783 20.0049 30.5012 20.0049C36.0241 20.0049 40.5024 24.4805 40.5024 30.0001C40.5024 35.5196 36.0241 39.9953 30.5012 39.9953C24.9783 39.9953 20.5024 35.5196 20.5024 30.0001ZM15.0959 30.0001C15.0959 38.5033 21.9929 45.3961 30.5012 45.3961C39.0095 45.3961 45.9065 38.5033 45.9065 30.0001C45.9065 21.4968 39.0095 14.604 30.5012 14.604C21.9929 14.604 15.0959 21.4968 15.0959 30.0001ZM42.9162 13.9936C42.9159 14.7052 43.1268 15.4009 43.5221 15.9928C43.9175 16.5846 44.4795 17.046 45.1373 17.3186C45.795 17.5912 46.5188 17.6627 47.2173 17.5241C47.9157 17.3856 48.5573 17.0432 49.061 16.5402C49.5647 16.0372 49.9078 15.3962 50.047 14.6984C50.1862 14.0005 50.1152 13.277 49.843 12.6195C49.5707 11.9619 49.1095 11.3998 48.5177 11.0042C47.9258 10.6086 47.2298 10.3973 46.5178 10.397H46.5163C45.5619 10.3975 44.6467 10.7765 43.9716 11.4508C43.2966 12.1252 42.917 13.0397 42.9162 13.9936ZM18.3807 54.4057C15.4557 54.2725 13.8659 53.7856 12.8094 53.3742C11.4087 52.8293 10.4093 52.1802 9.35851 51.1315C8.30775 50.0828 7.65733 49.085 7.11442 47.6851C6.70257 46.6297 6.21535 45.0404 6.08238 42.1171C5.93694 38.9566 5.9079 38.0073 5.9079 30.0003C5.9079 21.9933 5.93934 21.0466 6.08238 17.8835C6.21559 14.9602 6.70641 13.374 7.11442 12.3155C7.65973 10.9156 8.30919 9.91682 9.35851 8.86669C10.4078 7.81656 11.4063 7.16652 12.8094 6.62395C13.8654 6.21234 15.4557 5.72541 18.3807 5.59252C21.5431 5.44716 22.493 5.41814 30.5012 5.41814C38.5094 5.41814 39.4603 5.44956 42.6253 5.59252C45.5503 5.72565 47.1375 6.21617 48.1966 6.62395C49.5973 7.16652 50.5967 7.818 51.6475 8.86669C52.6983 9.91538 53.3463 10.9156 53.8916 12.3155C54.3034 13.3709 54.7907 14.9602 54.9236 17.8835C55.0691 21.0466 55.0981 21.9933 55.0981 30.0003C55.0981 38.0073 55.0691 38.954 54.9236 42.1171C54.7904 45.0404 54.3008 46.6292 53.8916 47.6851C53.3463 49.085 52.6968 50.0838 51.6475 51.1315C50.5982 52.1792 49.5973 52.8293 48.1966 53.3742C47.1406 53.7859 45.5503 54.2728 42.6253 54.4057C39.4629 54.551 38.513 54.58 30.5012 54.58C22.4894 54.58 21.5421 54.551 18.3807 54.4057ZM18.1323 0.198424C14.9385 0.343783 12.7561 0.849899 10.8502 1.59108C8.87634 2.3565 7.20539 3.38336 5.53564 5.04947C3.86589 6.71557 2.84105 8.38816 2.07518 10.3608C1.33355 12.2668 0.827133 14.4467 0.681687 17.6386C0.533841 20.8355 0.5 21.8576 0.5 30.0001C0.5 38.1425 0.533841 39.1646 0.681687 42.3615C0.827133 45.5537 1.33355 47.7333 2.07518 49.6393C2.84105 51.6108 3.86613 53.2853 5.53564 54.9506C7.20515 56.616 8.87634 57.6415 10.8502 58.409C12.7597 59.1502 14.9385 59.6563 18.1323 59.8017C21.3328 59.947 22.3538 59.9833 30.5012 59.9833C38.6486 59.9833 39.6712 59.9494 42.8701 59.8017C46.0641 59.6563 48.2451 59.1502 50.1522 58.409C52.1249 57.6415 53.797 56.6167 55.4668 54.9506C57.1365 53.2845 58.1592 51.6108 58.9272 49.6393C59.6689 47.7333 60.1777 45.5534 60.3207 42.3615C60.4662 39.1622 60.5 38.1425 60.5 30.0001C60.5 21.8576 60.4662 20.8355 60.3207 17.6386C60.1753 14.4464 59.6689 12.2656 58.9272 10.3608C58.1592 8.38936 57.1339 6.71821 55.4668 5.04947C53.7997 3.38072 52.1249 2.3565 50.1546 1.59108C48.2451 0.849899 46.0639 0.341384 42.8725 0.198424C39.6736 0.0530654 38.651 0.0168457 30.5036 0.0168457C22.3562 0.0168457 21.3328 0.0506668 18.1323 0.198424Z" fill="url(#paint1_radial_722_180)"/>
<defs>
<radialGradient id="paint0_radial_722_180" cx="0" cy="0" r="1" gradientUnits="userSpaceOnUse" gradientTransform="translate(8.47168 60.2665) scale(78.3281 78.2811)">
<stop offset="0.09" stop-color="#FA8F21"/>
<stop offset="0.78" stop-color="#D82D7E"/>
</radialGradient>
<radialGradient id="paint1_radial_722_180" cx="0" cy="0" r="1" gradientUnits="userSpaceOnUse" gradientTransform="translate(36.8888 62.953) scale(61.7334 61.6963)">
<stop offset="0.64" stop-color="#8C3AAA" stop-opacity="0"/>
<stop offset="1" stop-color="#8C3AAA"/>
</radialGradient>
</defs>
</svg>
