<svg width="61" height="62" viewBox="0 0 61 62" fill="none" xmlns="http://www.w3.org/2000/svg">
<path d="M0.5 61.0243L4.80834 45.0191C1.33377 38.7843 0.229867 31.5087 1.69919 24.5276C3.16852 17.5464 7.11252 11.3279 12.8075 7.01316C18.5024 2.69842 25.5663 0.576871 32.7029 1.03781C39.8395 1.49876 46.57 4.51128 51.6595 9.52257C56.749 14.5339 59.8561 21.2078 60.4105 28.3197C60.9649 35.4315 58.9296 42.5043 54.6779 48.2401C50.4262 53.9759 44.2434 57.99 37.264 59.5458C30.2847 61.1016 22.9769 60.0948 16.6817 56.71L0.5 61.0243ZM17.462 50.7207L18.4627 51.3129C23.0225 54.0087 28.3481 55.1242 33.6099 54.4857C38.8716 53.8472 43.7738 51.4905 47.5525 47.7829C51.3312 44.0752 53.7742 39.2249 54.5007 33.9878C55.2272 28.7507 54.1965 23.4209 51.5692 18.8291C48.9418 14.2372 44.8654 10.6413 39.9752 8.60159C35.0851 6.56189 29.6558 6.19303 24.5335 7.55248C19.4112 8.91193 14.8836 11.9233 11.6563 16.1174C8.42899 20.3114 6.68325 25.4526 6.69112 30.7396C6.68683 35.1234 7.90231 39.4224 10.2022 43.158L10.8298 44.1901L8.42124 53.1232L17.462 50.7207Z" fill="#00D95F"/>
<path fill-rule="evenodd" clip-rule="evenodd" d="M41.7513 34.8494C41.1646 34.3775 40.4777 34.0453 39.7428 33.8781C39.008 33.711 38.2446 33.7134 37.5108 33.8851C36.4083 34.3419 35.6959 36.0676 34.9835 36.9305C34.8332 37.1373 34.6125 37.2824 34.3627 37.3384C34.1128 37.3945 33.8511 37.3577 33.6265 37.235C29.5901 35.6581 26.2068 32.7663 24.026 29.0294C23.84 28.7962 23.752 28.5001 23.7805 28.2034C23.8089 27.9068 23.9517 27.6328 24.1787 27.439C24.9732 26.6544 25.5566 25.6826 25.8749 24.6136C25.9455 23.4343 25.6747 22.2597 25.0946 21.2298C24.6462 19.7859 23.7927 18.5001 22.6351 17.5246C22.0381 17.2567 21.3761 17.1669 20.729 17.266C20.0819 17.365 19.4774 17.6488 18.9883 18.0829C18.1393 18.8135 17.4654 19.7248 17.0163 20.7496C16.5672 21.7744 16.3542 22.8867 16.3931 24.0045C16.3957 24.6322 16.4755 25.2572 16.6306 25.8655C17.0245 27.3272 17.6302 28.7236 18.4286 30.0107C19.0046 30.9966 19.6331 31.951 20.3113 32.8699C22.5156 35.8882 25.2865 38.4509 28.4701 40.4157C30.0676 41.4142 31.775 42.226 33.5586 42.8351C35.4114 43.6729 37.4571 43.9944 39.4784 43.7657C40.63 43.5918 41.7212 43.1382 42.6558 42.4449C43.5905 41.7516 44.34 40.8398 44.8384 39.7897C45.1312 39.1554 45.2201 38.4462 45.0928 37.7595C44.7875 36.3552 42.9047 35.5262 41.7513 34.8494Z" fill="#00D95F"/>
</svg>
