<svg width="61" height="44" viewBox="0 0 61 44" fill="none" xmlns="http://www.w3.org/2000/svg">
<path d="M59.2496 7.52143C58.5624 4.9377 56.5293 2.89942 53.9426 2.20085C49.2655 0.947266 30.5 0.947266 30.5 0.947266C30.5 0.947266 11.744 0.947266 7.05743 2.20085C4.48027 2.88985 2.44718 4.92813 1.7504 7.52143C0.5 12.2104 0.5 21.9999 0.5 21.9999C0.5 21.9999 0.5 31.7894 1.7504 36.4784C2.43764 39.0621 4.47073 41.1004 7.05743 41.7989C11.744 43.0525 30.5 43.0525 30.5 43.0525C30.5 43.0525 49.2655 43.0525 53.9426 41.7989C56.5197 41.11 58.5528 39.0717 59.2496 36.4784C60.5 31.7894 60.5 21.9999 60.5 21.9999C60.5 21.9999 60.5 12.2104 59.2496 7.52143Z" fill="#FF3000"/>
<path d="M24.5057 31.0238L40.0927 21.9999L24.5057 12.976V31.0238Z" fill="white"/>
</svg>
