<svg width="20" height="21" viewBox="0 0 20 21" fill="none" xmlns="http://www.w3.org/2000/svg">
<path d="M9.74988 18.5H4.74987C3.6453 18.5 2.74987 17.6045 2.74988 16.5L2.74996 4.50001C2.74996 3.39545 3.64539 2.50002 4.74996 2.50002H13.7502C14.8547 2.50002 15.7502 3.39545 15.7502 4.50002V8.50002M6.25019 6.50002H12.2502M6.25019 9.50002H12.2502M12.2502 13.4617V15.9153C12.2502 17.1278 13.543 18.2398 14.7555 18.2398C15.968 18.2398 17.2502 17.1278 17.2502 15.9153V12.816C17.2502 12.1741 16.8812 11.5227 16.0603 11.5227C15.1822 11.5227 14.7555 12.1741 14.7555 12.816V15.7862M6.25019 12.5H9.25019" stroke="#2F2F2F" stroke-width="2" stroke-linecap="round" stroke-linejoin="round"/>
</svg>
