<svg width="39" height="58" viewBox="0 0 39 58" fill="none" xmlns="http://www.w3.org/2000/svg">
<g clip-path="url(#clip0_715_23)">
<path d="M19.5 29C19.5 26.4804 20.5009 24.0641 22.2825 22.2825C24.0641 20.5009 26.4804 19.5 29 19.5C31.5196 19.5 33.9359 20.5009 35.7175 22.2825C37.4991 24.0641 38.5 26.4804 38.5 29C38.5 31.5196 37.4991 33.9359 35.7175 35.7175C33.9359 37.4991 31.5196 38.5 29 38.5C26.4804 38.5 24.0641 37.4991 22.2825 35.7175C20.5009 33.9359 19.5 31.5196 19.5 29Z" fill="#1ABCFE"/>
<path d="M0.5 48C0.5 45.4804 1.50089 43.0641 3.28249 41.2825C5.06408 39.5009 7.48044 38.5 10 38.5H19.5V48C19.5 50.5196 18.4991 52.9359 16.7175 54.7175C14.9359 56.4991 12.5196 57.5 10 57.5C7.48044 57.5 5.06408 56.4991 3.28249 54.7175C1.50089 52.9359 0.5 50.5196 0.5 48H0.5Z" fill="#0ACF83"/>
<path d="M19.5 0.5V19.5H29C31.5196 19.5 33.9359 18.4991 35.7175 16.7175C37.4991 14.9359 38.5 12.5196 38.5 10C38.5 7.48044 37.4991 5.06408 35.7175 3.28249C33.9359 1.50089 31.5196 0.5 29 0.5L19.5 0.5Z" fill="#FF7262"/>
<path d="M0.5 10C0.5 12.5196 1.50089 14.9359 3.28249 16.7175C5.06408 18.4991 7.48044 19.5 10 19.5H19.5V0.5H10C7.48044 0.5 5.06408 1.50089 3.28249 3.28249C1.50089 5.06408 0.5 7.48044 0.5 10H0.5Z" fill="#F24E1E"/>
<path d="M0.5 29C0.5 31.5196 1.50089 33.9359 3.28249 35.7175C5.06408 37.4991 7.48044 38.5 10 38.5H19.5V19.5H10C7.48044 19.5 5.06408 20.5009 3.28249 22.2825C1.50089 24.0641 0.5 26.4804 0.5 29H0.5Z" fill="#A259FF"/>
</g>
<defs>
<clipPath id="clip0_715_23">
<rect width="38" height="57" fill="white" transform="translate(0.5 0.5)"/>
</clipPath>
</defs>
</svg>
