<svg width="25" height="24" viewBox="0 0 25 24" fill="none" xmlns="http://www.w3.org/2000/svg">
<path d="M12.1998 21.6001H6.19979C4.87431 21.6001 3.7998 20.5256 3.7998 19.2001L3.7999 4.80013C3.79991 3.47466 4.87442 2.40015 6.1999 2.40015H17.0002C18.3256 2.40015 19.4002 3.47466 19.4002 4.80015V9.60015M8.00018 7.20015H15.2002M8.00018 10.8001H15.2002M15.2002 15.5541V18.4985C15.2002 19.9534 16.7516 21.2879 18.2065 21.2879C19.6615 21.2879 21.2002 19.9535 21.2002 18.4985V14.7793C21.2002 14.009 20.7574 13.2273 19.7723 13.2273C18.7186 13.2273 18.2065 14.009 18.2065 14.7793V18.3435M8.00018 14.4001H11.6002" stroke="#F5FAFF" stroke-width="2" stroke-linecap="round" stroke-linejoin="round"/>
</svg>
