<svg width="23" height="24" viewBox="0 0 23 24" fill="none" xmlns="http://www.w3.org/2000/svg">
<path d="M19.4414 18.771C19.4414 18.771 18.3793 19.909 18.119 20.2427C17.695 20.7363 17.1955 20.9693 16.5406 20.9693C16.4776 20.9693 16.4104 20.9693 16.3474 20.9648C15.1006 20.8779 13.942 20.3478 13.073 19.8953C10.6969 18.643 8.61043 16.8652 6.87663 14.612C5.44509 12.7336 4.48794 10.9969 3.85403 9.13217C3.46361 7.99415 3.32088 7.1075 3.38385 6.27113C3.42583 5.7364 3.61474 5.29308 3.96318 4.91374L5.39472 3.35526C5.60042 3.14502 5.81872 3.03076 6.03282 3.03076C6.2973 3.03076 6.5114 3.20443 6.64574 3.35069C6.64994 3.35526 6.65413 3.35983 6.65833 3.3644C6.91441 3.62491 7.1579 3.89456 7.41398 4.18249C7.54412 4.32874 7.67846 4.47499 7.8128 4.62581L8.95887 5.87351C9.40386 6.35797 9.40386 6.80586 8.95887 7.29032C8.83712 7.42286 8.71958 7.5554 8.59783 7.68337C8.2452 8.07642 8.52221 7.77483 8.15698 8.13132C8.14859 8.14046 8.14019 8.14503 8.13599 8.15417C7.77496 8.54722 7.84213 8.93113 7.91769 9.19164C7.92189 9.20535 7.92609 9.21906 7.93029 9.23277C8.22835 10.0189 8.64815 10.7593 9.28626 11.6413L9.29046 11.6459C10.4491 13.1998 11.6708 14.411 13.0183 15.3387C13.1905 15.4576 13.3668 15.5536 13.5347 15.645C13.6858 15.7272 13.8286 15.8049 13.9503 15.8872C13.9671 15.8963 13.9839 15.91 14.0007 15.9192C14.1434 15.9969 14.2777 16.0334 14.4163 16.0334C14.7647 16.0334 14.983 15.7958 15.0544 15.7181L15.8773 14.8222C16.02 14.6668 16.2467 14.4795 16.5112 14.4795C16.7715 14.4795 16.9856 14.6577 17.1157 14.8131C17.1199 14.8177 17.1199 14.8177 17.1241 14.8222L19.4372 17.3405C19.8696 17.8067 19.4414 18.771 19.4414 18.771Z" stroke="#F5FAFF" stroke-width="2" stroke-linecap="round" stroke-linejoin="round"/>
</svg>
